<svg id="Capa_1" enable-background="new 0 0 511.998 511.998" height="512" viewBox="0 0 511.998 511.998" width="512" xmlns="http://www.w3.org/2000/svg"><g><path d="m421.333 216.228h-16.038l1.264-17.168c2.516-34.161-6.695-68.239-25.976-96.37 5.623-23.512 5.205-43.723 4.913-49.742-.248-5.035-4.735-8.797-9.736-8.164-5.23.663-20.015 2.959-37.68 9.344-3.373-18.811-8.913-32.956-10.736-37.298-1.952-4.645-7.451-6.653-11.941-4.347-4.498 2.314-17.708 9.553-32.219 21.659-9.601-16.518-19.643-27.911-22.844-31.372-3.415-3.682-9.271-3.706-12.703.005-3.198 3.455-13.247 14.856-22.856 31.395-14.722-12.287-28.07-19.56-32.206-21.688-4.483-2.304-9.984-.301-11.938 4.347-1.822 4.338-7.361 18.474-10.735 37.289-17.775-6.412-32.664-8.698-37.682-9.334-4.979-.631-9.487 3.106-9.735 8.168-.311 6.388-.765 28.777 6.024 54.133-17.512 27.504-25.483 59.227-23.071 91.976l1.264 17.168h-16.037c-21.063 0-38.197 17.135-38.197 38.197v3.357c0 34.761 27.607 63.196 62.048 64.529l.678 9.207c1.555 21.102 9.902 41.48 24.812 60.568 2.554 3.271 7.271 3.839 10.527 1.295 3.265-2.55 3.844-7.264 1.295-10.527-13.05-16.707-20.342-34.35-21.675-52.438-11.22-152.353 7.407 100.57-9.755-132.459-1.859-25.255 3.134-49.83 14.505-71.919 2.394 5.782 5.234 11.552 8.603 17.169-4.62 11.578-7.382 23.786-8.218 36.35-.87 13.104 9.554 24.246 22.696 24.246h196.028c13.13 0 23.569-11.131 22.696-24.246-.934-14.063-4.267-27.63-9.915-40.389 3.148-5.731 5.779-11.584 7.976-17.413 12.858 23.068 18.788 49.605 16.83 76.201-14.126 191.815-7.408 100.585-9.755 132.459-4.598 62.426-83.458 111.28-125.847 111.28-24.648 0-58.038-16.815-80.028-34.567-3.222-2.603-7.944-2.099-10.547 1.125-2.602 3.223-2.099 7.944 1.125 10.547 2.886 2.33 5.855 4.581 8.887 6.745v22.219c0 11.603-6.76 22.344-17.22 27.363l-30.882 14.817c-4.912 2.357-7.499 7.714-6.29 13.027s5.858 9.023 11.308 9.023h247.296c5.448 0 10.098-3.711 11.307-9.023s-1.378-10.67-6.291-13.027l-30.88-14.817c-10.461-5.02-17.221-15.76-17.221-27.363v-22.258c31.022-22.241 57.373-55.04 60.242-93.989l.678-9.207c34.441-1.333 62.048-29.768 62.048-64.529v-3.357c.001-21.062-17.134-38.197-38.196-38.197zm-353.865 41.555v-3.357c0-12.791 10.406-23.197 23.197-23.197h17.142l5.597 76c-25.643-1.871-45.936-23.333-45.936-49.446zm248.596-228.497c2.425 6.842 5.723 17.67 7.794 30.683-2.486 1.152-4.991 2.387-7.502 3.712-3.663 1.934-5.066 6.47-3.134 10.134 1.934 3.662 6.469 5.063 10.134 3.134 18.509-9.766 37.106-14.264 47.259-16.157-.202 16.868-3.399 58.067-28.061 87.458-20.957 24.976-53.002 36.08-70.823 40.557h-10.074c-.031-1.476-.083-3.068-.163-4.764 1.596-32.126 11.496-65.367 34.848-87.88 2.982-2.875 3.069-7.623.194-10.604-2.874-2.982-7.621-3.07-10.604-.194-15.618 15.057-25.702 33.613-31.941 54.126-1.507-4.955-3.302-9.986-5.435-14.999.797-9.666 2.742-18.798 5.789-27.169 13.128-36.071 47.221-59.438 61.719-68.037zm-62.073-10.966c4.617 5.597 11.423 14.645 17.824 26.168-6.244 6.212-12.377 13.3-17.831 21.26-5.452-7.944-11.588-15.025-17.832-21.233 6.407-11.539 13.219-20.596 17.839-26.195zm-62.065 10.941c20.952 12.311 41.096 30.136 53.511 50.927-3.859 7.685-6.576 15.179-8.507 22.833-12.998-19.147-31.3-33.11-52.803-43.07 2.074-13.025 5.374-23.854 7.799-30.69zm-41.671 151.293c.508-7.632 1.827-15.113 3.938-22.36.49.579.983 1.152 1.482 1.718 2.739 3.107 7.479 3.405 10.586.666 3.107-2.74 3.405-7.479.666-10.586-20.66-23.447-29.188-58.018-29.56-89.188 16.583 3.13 56.589 13.434 81.245 42.818 18.347 21.864 26.462 51.965 27.876 80.42-.08 1.696-.132 3.288-.163 4.764h-10.074c-11.447-2.873-28.077-8.271-43.92-17.893-3.537-2.147-8.152-1.022-10.304 2.519-2.149 3.54-1.022 8.153 2.519 10.304 3.008 1.826 6.037 3.513 9.054 5.07h-35.616c-4.474-.001-8.027-3.777-7.729-8.252zm211.487 0c.297 4.468-3.245 8.251-7.729 8.251h-39.526c16.478-8.522 31.014-19.767 42.206-34.197 2.764 8.349 4.457 17.033 5.049 25.946zm-14.447 308.099 17.39 8.345h-217.372l17.391-8.345c15.632-7.5 25.731-23.549 25.731-40.887v-12.51c22.681 13.274 46.943 21.441 65.563 21.441 17.874 0 42.171-7.72 65.563-21.443v12.512c.001 17.338 10.102 33.387 25.734 40.887zm97.235-230.87c0 26.114-20.293 47.575-45.937 49.445l5.597-76h17.142c12.791 0 23.197 10.406 23.197 23.197v3.358z"/><path d="m236.027 238.286h-59.765c-4.143 0-7.5 3.357-7.5 7.5s3.357 7.5 7.5 7.5h59.765c4.143 0 7.5-3.357 7.5-7.5s-3.357-7.5-7.5-7.5z"/><path d="m283.471 305.107v-39.35c0-6.877 5.595-12.472 12.472-12.472h39.793c4.143 0 7.5-3.357 7.5-7.5s-3.357-7.5-7.5-7.5h-39.793c-15.147 0-27.472 12.324-27.472 27.472v39.35c0 6.877-5.595 12.472-12.472 12.472-4.143 0-7.5 3.357-7.5 7.5s3.357 7.5 7.5 7.5c15.147 0 27.472-12.324 27.472-27.472z"/><path d="m210.455 369.424c-3.704-1.857-8.211-.361-10.066 3.342-1.857 3.702-.361 8.209 3.342 10.066l6.276 3.148c28.799 14.446 63.18 14.448 91.983 0l6.277-3.148c3.703-1.857 5.199-6.364 3.342-10.066-1.857-3.703-6.361-5.198-10.066-3.342l-6.278 3.148c-24.586 12.334-53.944 12.334-78.532 0z"/></g></svg>