<svg id="Capa_1" enable-background="new 0 0 512 512" height="512" viewBox="0 0 512 512" width="512" xmlns="http://www.w3.org/2000/svg"><g><g><path clip-rule="evenodd" d="m256 479.675c3.627-.113 7.254-3.256 14.509-9.002l191.447-189.555c56.618-58.599 56.618-154.48 0-213.079-51.432-53.249-134.546-39.915-189.492 9.54-10.145 9.144-13.744 13.701-16.464 13.673-2.72.028-6.291-4.529-16.464-13.673-54.946-49.455-138.031-62.789-189.492-9.54-56.618 58.599-56.618 154.48 0 213.079l22.982 22.76 168.466 166.795c7.254 5.747 10.881 8.889 14.508 9.002z" fill="#ff8086" fill-rule="evenodd"/></g><g><path clip-rule="evenodd" d="m461.956 281.118c56.618-58.599 56.618-154.48 0-213.079-27.119-28.082-63.022-37.622-98.954-33.178 6.999 4.558 13.659 9.993 19.836 16.391 53.699 55.57 56.476 144.629 8.388 203.681-45.198 55.485-130.239 130.107-183.23 182.591l33.495 33.149c7.254 5.747 10.882 8.889 14.509 9.002 3.627-.113 7.254-3.256 14.509-9.002 63.815-63.185 127.631-126.37 191.447-189.555z" fill="#e5646e" fill-rule="evenodd"/></g><g><path clip-rule="evenodd" d="m304.995 357.778 68.18-26.469 21.055-62.647c-1.19-11.635-4.591-24.345-12.553-35.754-36.442-52.003-31.029-78.245-49.959-69.809-17.994 7.983-21.168 35.98-2.749 54.381l-90.991-90.899c-7.113-7.105-18.788-7.105-25.9 0-7.113 7.134-7.113 18.769 0 25.874l-16.351-16.334c-7.141-7.105-18.788-7.105-25.929 0-7.113 7.105-7.113 18.769 0 25.874l9.521 9.512c-7.113-7.134-18.788-7.134-25.9 0-7.141 7.105-7.141 18.769 0 25.874l29.698 29.667c-5.923-5.917-15.642-5.917-21.593 0-5.923 5.945-6.433 16.136-.51 22.081l51.631 51.493c28.081 27.743 58.345 56.109 92.35 57.156z" fill="#ffe4c1" fill-rule="evenodd"/></g><g><path clip-rule="evenodd" d="m183.116 227.049c-5.923-5.917-15.642-5.917-21.593 0-.198.198-.368.368-.538.566l44.461 44.416c7.453 7.445 18.816-3.878 11.335-11.352l-.793-.793z" fill="#f1d0a5" fill-rule="evenodd"/></g><g><path clip-rule="evenodd" d="m238.572 230.701-59.253-59.193c-6.574-6.596-17.031-7.077-24.2-1.5l72.09 72.017c3.117 3.142 8.246 3.142 11.363 0 3.118-3.115 3.118-8.211 0-11.324z" fill="#f1d0a5" fill-rule="evenodd"/></g><g><path clip-rule="evenodd" d="m261.242 201.571-49.165-49.116-16.351-16.334-.085-.057c-6.574-6.511-17.002-6.992-24.143-1.444l78.381 78.302c3.117 3.114 8.246 3.114 11.363 0 3.117-3.113 3.117-8.209 0-11.351z" fill="#f1d0a5" fill-rule="evenodd"/></g><g><path clip-rule="evenodd" d="m237.977 126.581c-6.574-6.568-17.031-7.077-24.2-1.5l103.857 103.751c3.117 3.114 8.218 3.114 11.335.028-.538-3.539-.595-7.332 0-11.38z" fill="#f1d0a5" fill-rule="evenodd"/></g><g><path clip-rule="evenodd" d="m331.717 163.099c-5.781 2.548-10.031 7.19-12.525 12.909 18.079-7.417 13.262 18.797 49.222 70.149 10.967 15.655 13.262 33.829 13.092 48.238l13.262-13.248c.17-14.409-2.125-32.583-13.092-48.238-36.442-52.003-31.029-78.246-49.959-69.81z" fill="#f1d0a5" fill-rule="evenodd"/></g><g><path clip-rule="evenodd" d="m331.037 410.744 112.386-111.281-38.284-38.245c-.935-.962-2.522-.962-3.485 0-31.908 31.876-49.874 49.852-96.659 96.561l-.425.453-11.307 11.295c-.964.963-.964 2.52 0 3.482z" fill="#c3ddff" fill-rule="evenodd"/></g><g><path clip-rule="evenodd" d="m139.618 453.716c1.048-.028 2.069-.934 4.137-2.576l48.06-47.559 6.546-6.511c16.152-16.702 16.152-44.048 0-60.779-14.65-15.173-38.369-11.38-54.039 2.746-2.89 2.604-3.911 3.878-4.704 3.878-.765 0-1.785-1.274-4.676-3.878-15.699-14.126-39.389-17.919-54.068-2.746-16.152 16.73-16.152 44.077 0 60.779l6.546 6.511 48.06 47.559c2.07 1.642 3.118 2.548 4.138 2.576z" fill="#ffcccf" fill-rule="evenodd"/></g><g><path clip-rule="evenodd" d="m198.362 397.071c16.152-16.702 16.152-44.048 0-60.779-8.53-8.861-20.176-11.239-31.483-8.917 15.897 16.759 15.812 43.878-.255 60.524-15.841 15.683-31.681 31.366-47.522 47.049l16.379 16.193c2.069 1.642 3.117 2.548 4.137 2.576 1.048-.028 2.069-.934 4.137-2.576l48.06-47.559z" fill="#e7b1b9" fill-rule="evenodd"/></g><g><path clip-rule="evenodd" d="m443.423 299.462-38.284-38.245c-.935-.962-2.522-.962-3.485 0l-7.424 7.445-10.06 10.021c.964-.906 2.522-.906 3.457.057l4.761 4.756 33.438 33.404z" fill="#9dc6fb" fill-rule="evenodd"/></g><path d="m467.349 62.83c-25.554-26.457-60.874-39.246-99.448-36.006-35.737 2.999-71.412 19.045-100.456 45.186-3.151 2.84-5.69 5.252-7.729 7.19-1.311 1.246-2.648 2.515-3.711 3.468-1.037-.931-2.333-2.162-3.605-3.37-2.065-1.962-4.636-4.404-7.848-7.291-50.59-45.542-118.577-58.479-169.174-32.192-3.674 1.909-5.106 6.435-3.196 10.11 1.91 3.676 6.434 5.106 10.11 3.197 45.083-23.42 106.258-11.352 152.231 30.033 3.062 2.753 5.55 5.116 7.548 7.014 5.811 5.52 9.032 8.581 13.885 8.58h.085c4.868 0 8.126-3.096 14.002-8.679 1.976-1.877 4.435-4.214 7.436-6.919 48.922-44.034 128.312-62.468 179.084-9.903 53.968 55.856 53.988 146.727.054 202.605l-13.158 13.047-32.995-32.962c-1.851-1.877-4.326-2.92-6.98-2.941-1.468.008-2.922.339-4.252.945-2.401-9.402-6.216-17.886-11.417-25.338-15.302-21.837-22.872-38.663-28.399-50.949-4.021-8.938-6.678-14.843-10.595-18.811-5.267-5.336-12.048-6.208-20.145-2.6-9.856 4.373-16.74 13.502-18.885 25.048-.354 1.911-.574 3.839-.662 5.77l-65.854-65.787c-10.065-10.053-26.437-10.052-36.51.011-2.721 2.73-4.705 5.921-5.95 9.324-10.081-9.819-26.309-9.755-36.318.206-4.858 4.853-7.533 11.331-7.533 18.241 0 3.718.775 7.312 2.247 10.594-4.163 1.187-7.965 3.413-11.082 6.54-4.878 4.854-7.565 11.336-7.565 18.251 0 6.916 2.687 13.398 7.554 18.242l14.567 14.552c-2.343 1.089-4.54 2.595-6.475 4.52-8.958 8.992-9.191 23.95-.492 32.681l51.631 51.493c1.463 1.459 3.379 2.189 5.294 2.189 1.922 0 3.844-.735 5.309-2.203 2.924-2.932 2.918-7.679-.015-10.604l-51.613-51.476c-2.864-2.875-2.621-8.355.484-11.472 3.046-3.028 7.986-3.034 11.008-.013.015.014.029.028.043.042l29.428 29.398c2.931 2.927 7.678 2.923 10.603-.005 2.927-2.93 2.925-7.677-.005-10.604l-59.179-59.119c-2.03-2.019-3.146-4.726-3.146-7.623s1.117-5.603 3.168-7.644c2.023-2.029 4.736-3.146 7.64-3.146s5.617 1.117 7.64 3.146l.055.055 60.145 60.084c2.931 2.927 7.678 2.923 10.603-.005 2.927-2.93 2.925-7.677-.005-10.604l-69.71-69.639c-2.022-2.02-3.136-4.731-3.136-7.633s1.114-5.613 3.125-7.623c4.232-4.212 11.12-4.212 15.341-.012l65.204 65.166c2.929 2.927 7.674 2.926 10.603-.003 2.928-2.929 2.926-7.676-.003-10.603l-48.67-48.641c-.061-.065-.122-.128-.185-.192-4.205-4.201-4.2-11.054 0-15.266 4.217-4.215 11.083-4.216 15.303 0l87.724 87.635c-5.3 17.752-5.092 38.64.808 49.361 1.366 2.481 3.929 3.884 6.575 3.884 1.222 0 2.462-.3 3.608-.931 3.628-1.996 4.95-6.556 2.953-10.184-3.407-6.189-4.423-25.005 1.661-41.588 1.039-2.833.255-5.884-1.748-7.886.003 0 .005-.001.008-.001-7.902-7.893-11.539-18.414-9.732-28.143 1.228-6.61 4.953-11.742 10.234-14.085 1.946-.867 2.811-.906 3-.906 1.793 1.032 5.075 8.325 7.972 14.767 5.447 12.107 13.679 30.405 29.786 53.391 5.595 8.015 9.219 17.669 10.806 28.726l-84.71 84.646c-1.67.091-3.362.361-5.105.641-8.158 1.308-19.334 3.105-35.876-13.237l-18.532-18.486c-2.933-2.925-7.68-2.918-10.603.013-2.925 2.932-2.919 7.679.013 10.603l18.558 18.511c14.187 14.015 26.489 17.811 35.953 18.339-.64 1.329-.989 2.791-.989 4.31 0 2.661 1.037 5.163 2.921 7.046l32.446 32.413-54.885 54.332c-5.939 7.561-12.897 7.961-19.049 0l-53.042-52.529 10.215-10.142c.034-.034.068-.069.103-.103 18.968-19.614 18.97-51.554.004-71.199-18.566-19.227-46.792-13.289-64.123 2.089-12.185-10.812-26.952-15.467-40.343-13.831l-43.909-43.485c-53.926-55.879-53.909-146.749.056-202.602 2.877-2.978 2.796-7.725-.183-10.602-2.977-2.878-7.724-2.795-10.601.182-59.536 61.619-59.536 161.88 0 223.499.038.04.077.079.116.118l38.672 38.305c-2.858 1.723-5.535 3.827-7.96 6.334-18.966 19.645-18.964 51.584.004 71.198.034.035.068.069.103.103l6.559 6.525 48.061 47.558c2.486 2.455 5.906 4.784 9.512 4.743 3.527-.04 6.871-2.335 9.31-4.743l33.745-33.393 53.441 52.924c13.079 12.949 26.605 12.835 39.568.001l191.452-189.559c.038-.038.075-.076.112-.114 59.537-61.619 59.537-161.88.002-223.498zm-280.807 335.422-46.923 46.434-46.911-46.42-6.491-6.456c-13.368-13.875-13.349-36.429.047-50.305 12.152-12.566 31.568-7.778 43.66 3.103.808.729 1.46 1.347 1.997 1.854 2.053 1.943 4.175 3.952 7.698 3.952 3.544 0 5.686-2.025 7.757-3.983.531-.502 1.172-1.109 1.966-1.824 12.085-10.893 31.482-15.685 43.626-3.107 13.401 13.88 13.419 36.434.053 50.308zm144.525 1.924-28.939-28.909 97.092-97.019c.203-.182.395-.374.576-.576l3.6-3.597 29.414 29.384z"/></g></svg>