<svg id="Capa_1" enable-background="new 0 0 512 512" height="512" viewBox="0 0 512 512" width="512" xmlns="http://www.w3.org/2000/svg"><g><g><path clip-rule="evenodd" d="m262.006 277.83 69.784-69.148 9.493-9.41c23.456-24.289 23.456-64.04 0-88.329-21.291-22.068-55.711-16.544-78.472 3.97-4.191 3.775-5.663 5.663-6.801 5.663s-2.609-1.888-6.829-5.663c-22.734-20.514-57.154-26.038-78.445-3.97-23.456 24.289-23.456 64.04 0 88.329l9.493 9.41 69.756 69.148c3.026 2.387 4.525 3.692 6.024 3.747 1.501-.056 3-1.36 5.997-3.747z" fill="#ff8086" fill-rule="evenodd"/></g><g><path clip-rule="evenodd" d="m63.952 273.027-35.253-53.769c-.028-.194 16.627-46.968 16.572-47.135l-1.305-7.106c-1.665-8.189 3.692-16.267 11.908-17.905 8.189-1.666 16.239 3.692 17.96 12.242l7.051 38.28 12.797 69.342c-6.441 13.046-21.93 12.464-29.73 6.051z" fill="#f1d0a5" fill-rule="evenodd"/></g><g><path clip-rule="evenodd" d="m129.877 297.455-9.799-27.592 1.888-15.323c-1.249-7.495 3.72-14.768 11.214-16.267 7.661-1.555 15.211 3.47 16.794 11.464l14.295 76.67-20.708-7.939z" fill="#f1d0a5" fill-rule="evenodd"/></g><g><path clip-rule="evenodd" d="m93.681 266.976-15.267-34.865 2.47-34.477c.167-6.94 5.108-13.158 12.214-14.573 8.189-1.666 16.239 3.692 17.96 12.269l10.909 59.21c.028.167.056.305.083.472l7.828 42.443-20.652-2.804z" fill="#f1d0a5" fill-rule="evenodd"/></g><g><path clip-rule="evenodd" d="m129.877 297.455-7.828-42.443-.083-.472c-1.249-7.495 3.72-14.768 11.214-16.267 3.442-.694 6.856-.083 9.743 1.554-5.496 2.72-8.799 8.827-7.745 15.101l.083.472 8.3 53.603z" fill="#e5c093" fill-rule="evenodd"/></g><g><path clip-rule="evenodd" d="m93.681 266.976-12.797-69.342c.167-6.94 5.108-13.158 12.214-14.573 6.412-1.305 12.741 1.693 15.989 7.162-1.055 0-2.137.083-3.22.305-7.078 1.416-8.716 4.303-8.855 11.242l14.767 80.445z" fill="#e5c093" fill-rule="evenodd"/></g><g><path clip-rule="evenodd" d="m63.952 273.027c-6.218-33.616-12.186-67.371-18.681-100.904l-1.305-7.106c-1.665-8.189 3.692-16.267 11.908-17.905 4.774-.972 9.493.444 12.963 3.498-7.689 2.026-10.881 9.077-9.271 16.988 5.857 31.756 11.242 63.873 17.127 95.63-.416.139-.833.25-1.249.389-3.331 1.11-6.273 2.998-8.577 5.441-1.139 1.193-2.11 2.526-2.915 3.969z" fill="#e5c093" fill-rule="evenodd"/></g><g><path clip-rule="evenodd" d="m341.284 199.272c23.456-24.289 23.456-64.04 0-88.329-11.298-11.714-26.287-15.656-41.276-13.713 18.737 24.456 17.21 60.431-4.608 82.999l-9.493 9.438-62.428 61.875 26.509 26.288c3.026 2.387 4.525 3.692 6.024 3.747 1.499-.056 2.998-1.36 5.996-3.747l69.784-69.148z" fill="#e5646e" fill-rule="evenodd"/></g><g><path clip-rule="evenodd" d="m87.602 388.616-29.424-26.926c-10.437-9.549-22.096-29.397-25.371-42.86-4.858-19.986-10.687-53.02-12.574-65.372l-12.519-81.307c-1.554-10.243 8.744-18.71 19.098-18.571 10.16.139 16.516 8.577 18.459 18.543l.111.555 18.57 100.349c5.635-10.215 20.486-14.379 29.729-6.051l70.589 59.432c17.404 14.657 29.479 15.156 37.918 61.125l-1.083.666-21.79 44.858-53.934.444c-12.159-19.625-19.209-27.869-37.779-44.885z" fill="#ffe4c1" fill-rule="evenodd"/></g><g><path clip-rule="evenodd" d="m184.894 397.887c-8.383-40.944-20.18-41.944-36.918-56.018l-70.589-59.432c-4.386-3.942-10.048-5.08-15.35-4.108-.028 0-.028 0-.028 0 .056-.167.083-.361.139-.527.583-2.443 1.638-4.775 3.164-6.912 2.526-3.387 6.162-5.94 10.132-7.273 6.107-2.054 13.046-1.305 18.237 3.359l13.49 11.381 22.706 19.098 13.685 11.548 20.708 17.405c17.404 14.657 29.479 15.156 37.918 61.125z" fill="#f1d0a5" fill-rule="evenodd"/></g><g><path clip-rule="evenodd" d="m129.489 431.031 71.616-42.832 5.996-3.609c5.024-2.998 11.603-1.36 14.601 3.664l17.127 28.619c2.998 5.024 1.332 11.576-3.664 14.573l-83.663 50.049c-4.996 2.998-11.575 1.36-14.573-3.664l-17.127-28.619c-2.998-4.997-1.332-11.575 3.664-14.573z" fill="#eceaed" fill-rule="evenodd"/></g><g><path clip-rule="evenodd" d="m184.894 397.887h.028zm50.27 33.561c4.996-2.998 6.662-9.549 3.664-14.573l-17.127-28.619c-2.998-5.024-9.577-6.662-14.601-3.664-7.384 4.441-14.795 8.855-22.179 13.297 4.996-2.998 11.575-1.36 14.573 3.664l17.099 28.619c2.998 4.997 1.36 11.548-3.609 14.546z" fill="#dad8db" fill-rule="evenodd"/></g><g><path clip-rule="evenodd" d="m448.07 273.027 35.225-53.769c.056-.194-16.599-46.968-16.544-47.135l1.305-7.106c1.638-8.189-3.72-16.267-11.908-17.905-8.189-1.666-16.239 3.692-17.96 12.242l-7.051 38.28-12.797 69.342c6.441 13.046 21.902 12.464 29.73 6.051z" fill="#f1d0a5" fill-rule="evenodd"/></g><g><path clip-rule="evenodd" d="m382.144 297.455 9.771-27.592-1.86-15.323c1.249-7.495-3.72-14.768-11.214-16.267-7.661-1.555-15.211 3.47-16.821 11.464l-14.268 76.67 20.68-7.939z" fill="#f1d0a5" fill-rule="evenodd"/></g><g><path clip-rule="evenodd" d="m418.341 266.976 15.239-34.865-2.443-34.477c-.167-6.94-5.135-13.158-12.214-14.573-8.189-1.666-16.239 3.692-17.96 12.269l-10.909 59.21c-.028.167-.056.305-.083.472l-7.828 42.443 20.652-2.804z" fill="#f1d0a5" fill-rule="evenodd"/></g><g><path clip-rule="evenodd" d="m382.144 297.455 7.828-42.443.083-.472c1.249-7.495-3.72-14.768-11.214-16.267-3.442-.694-6.884-.083-9.743 1.554 5.496 2.72 8.799 8.827 7.745 15.101l-.083.472-8.327 53.603z" fill="#e5c093" fill-rule="evenodd"/></g><g><path clip-rule="evenodd" d="m418.341 266.976 12.797-69.342c-.167-6.94-5.135-13.158-12.214-14.573-6.412-1.305-12.741 1.693-16.017 7.162 1.083 0 2.137.083 3.22.305 7.106 1.416 8.716 4.303 8.883 11.242l-14.767 80.445z" fill="#e5c093" fill-rule="evenodd"/></g><g><path clip-rule="evenodd" d="m448.07 273.027c6.218-33.616 12.186-67.371 18.681-100.904l1.305-7.106c1.638-8.189-3.72-16.267-11.908-17.905-4.774-.972-9.521.444-12.963 3.498 7.689 2.026 10.881 9.077 9.271 16.988-5.885 31.756-11.242 63.873-17.127 95.63.416.139.833.25 1.249.389 3.331 1.11 6.273 2.998 8.577 5.441 1.138 1.193 2.11 2.526 2.915 3.969z" fill="#e5c093" fill-rule="evenodd"/></g><g><path clip-rule="evenodd" d="m424.42 388.616 29.424-26.926c10.437-9.549 22.068-29.397 25.371-42.86 4.858-19.986 10.687-53.02 12.574-65.372l12.491-81.306c1.582-10.243-8.744-18.71-19.098-18.571-10.16.139-16.516 8.577-18.431 18.543l-.111.555-18.57 100.349c-5.635-10.215-20.486-14.379-29.729-6.051l-70.589 59.432c-17.404 14.657-29.479 15.156-37.918 61.125l1.083.666 21.79 44.858 53.906.444c12.186-19.626 19.236-27.87 37.807-44.886z" fill="#ffe4c1" fill-rule="evenodd"/></g><g><path clip-rule="evenodd" d="m382.533 431.031-71.616-42.832-6.024-3.609c-4.996-2.998-11.575-1.36-14.573 3.664l-17.127 28.619c-2.998 5.024-1.332 11.576 3.664 14.573l83.635 50.049c5.024 2.998 11.603 1.36 14.601-3.664l17.099-28.619c3.026-4.997 1.36-11.575-3.664-14.573z" fill="#eceaed" fill-rule="evenodd"/></g><g><path clip-rule="evenodd" d="m386.613 433.502c12.186-19.626 19.236-27.87 37.807-44.886l29.424-26.926c10.437-9.549 22.068-29.397 25.371-42.86 4.858-19.986 10.687-53.02 12.574-65.372l2.47-16.017 10.021-65.289c1.11-7.134-3.581-13.435-10.021-16.517-2.804-1.36-5.94-2.11-9.077-2.054l-7.578 49.411-4.913 31.895c-.028.25-.083.5-.111.749-1.999 12.852-7.689 45.025-12.463 64.623-3.303 13.463-14.934 33.311-25.371 42.86l-29.424 26.954c-18.57 16.988-25.621 32.367-37.807 51.993l15.017 8.966z" fill="#f1d0a5" fill-rule="evenodd"/></g><g><path clip-rule="evenodd" d="m375.093 477.833 17.099-28.619c3.026-4.997 1.36-11.575-3.664-14.573l-21.013-12.575c3.997 2.387 5.857 6.995 4.941 11.298-.222 1.138-.638 2.248-1.277 3.276l-17.099 28.619c-2.998 4.997-9.521 6.634-14.545 3.692l20.957 12.547c.028.028.056.028.083.056 5.025 2.913 11.52 1.275 14.518-3.721z" fill="#dad8db" fill-rule="evenodd"/></g><g><path d="m372.248 75.646c1.355 1.008 2.937 1.494 4.505 1.494 2.308 0 4.587-1.053 6.07-3.048l16.683-22.429c2.491-3.349 1.796-8.083-1.553-10.574-3.35-2.491-8.084-1.795-10.575 1.554l-16.683 22.429c-2.491 3.349-1.796 8.083 1.553 10.574z"/><path d="m396.481 115.843c.843 3.453 3.934 5.767 7.336 5.767.593 0 1.196-.07 1.797-.217l26.731-6.523c4.055-.989 6.539-5.078 5.55-9.133-.99-4.054-5.08-6.54-9.134-5.55l-26.731 6.523c-4.054.99-6.538 5.079-5.549 9.133z"/><path d="m318.831 56.884c.216 4.03 3.551 7.153 7.539 7.153.137 0 .273-.003.411-.011 4.168-.223 7.366-3.783 7.142-7.951l-1.471-27.481c-.224-4.168-3.801-7.373-7.95-7.142-4.168.223-7.365 3.783-7.142 7.951z"/><path d="m129.199 74.092c1.484 1.994 3.762 3.048 6.07 3.048 1.568 0 3.15-.486 4.504-1.494 3.349-2.491 4.044-7.225 1.554-10.574l-16.683-22.429c-2.492-3.349-7.226-4.045-10.574-1.554-3.349 2.491-4.044 7.225-1.554 10.574z"/><path d="m79.675 114.87 26.731 6.523c.602.147 1.204.217 1.797.217 3.403 0 6.494-2.314 7.336-5.767.99-4.055-1.495-8.144-5.55-9.133l-26.731-6.523c-4.053-.989-8.144 1.496-9.133 5.55-.989 4.055 1.496 8.144 5.55 9.133z"/><path d="m185.24 64.026c.138.007.274.011.41.011 3.989 0 7.324-3.123 7.54-7.154l1.471-27.481c.223-4.168-2.975-7.727-7.143-7.95-4.155-.21-7.727 2.975-7.95 7.143l-1.471 27.481c-.223 4.167 2.975 7.727 7.143 7.95z"/><path d="m228.191 384.382c-2.486-4.167-6.462-7.115-11.195-8.299-3.148-.788-6.367-.712-9.403.151-6.942-30.598-16.261-38.902-30.174-49.189-2.02-1.494-4.093-3.028-6.226-4.733l-13.806-74.041c-1.163-5.879-4.513-10.92-9.432-14.197-4.83-3.217-10.612-4.354-16.252-3.212-2.156.43-4.172 1.17-6.016 2.16l-7.198-39.061c-.007-.039-.015-.078-.023-.117-1.237-6.168-4.755-11.448-9.905-14.867-5.035-3.343-11.059-4.523-16.941-3.328-2.377.474-4.602 1.335-6.639 2.486l-3.716-20.151c-.007-.04-.015-.08-.023-.121-1.238-6.152-4.755-11.421-9.902-14.835-5.039-3.343-11.069-4.524-16.944-3.326-5.956 1.187-11.097 4.64-14.475 9.721-.086.13-.154.267-.238.398-3.741-2.393-8.068-3.733-12.773-3.796-8.043-.121-15.987 3.421-21.232 9.44-4.472 5.132-6.404 11.461-5.436 17.838l12.518 81.298c1.913 12.516 7.788 45.797 12.702 66.017 3.691 15.168 16.077 36.095 27.612 46.648l29.42 26.923c16.337 14.97 23.261 22.712 32.814 37.52-5.115 5.784-6.163 14.438-1.994 21.387l17.122 28.611c2.485 4.166 6.455 7.114 11.177 8.298 1.485.373 2.986.557 4.477.557 3.24 0 6.428-.87 9.267-2.565l28.147-16.711c3.589-2.131 4.771-6.767 2.641-10.357-2.131-3.59-6.768-4.772-10.357-2.641l-28.162 16.719c-.947.564-1.87.453-2.334.336-.462-.116-1.32-.45-1.882-1.392l-17.131-28.627c-.852-1.42-.361-3.345 1.064-4.2l83.627-50.045c.949-.567 1.881-.453 2.353-.335.466.117 1.331.452 1.891 1.39l17.122 28.611c.859 1.44.351 3.352-1.143 4.27l-26.453 16.322c-3.552 2.192-4.655 6.848-2.463 10.4s6.85 4.655 10.4 2.463l26.442-16.315c8.491-5.218 11.271-16.381 6.192-24.894zm-93.508-138.703c1.697-.344 3.434.001 4.892.973 1.548 1.031 2.608 2.648 2.969 4.471l10.421 55.888-16.148-13.596-7.383-40.067c-.59-3.491 1.761-6.974 5.249-7.669zm-40.079-55.213c1.943-.395 3.932-.003 5.598 1.103 1.767 1.173 2.986 3.017 3.436 5.198l10.922 59.27c.027.151.048.301.078.452.005.025.013.049.019.074l3.969 21.536-18.005-15.159-12.136-65.807c.362-3.267 2.831-6.012 6.119-6.667zm-42.095-32.676c1.137-1.71 2.856-2.87 4.871-3.272 1.944-.396 3.935-.003 5.605 1.104 1.764 1.17 2.98 3.006 3.429 5.173l17.381 94.251c-3.484-.249-7.09.19-10.643 1.37-1.484.493-2.9 1.109-4.254 1.814l-17.502-94.588c-.008-.043-.017-.087-.025-.131-.402-1.98.002-4.012 1.138-5.721zm75.315 265.434c-10.206-15.778-17.898-24.402-35.12-40.184l-29.424-26.926c-9.172-8.391-20.196-27.014-23.129-39.069-4.806-19.773-10.568-52.432-12.448-64.738l-12.517-81.289c-.296-1.953.339-3.845 1.89-5.624 2.295-2.634 6.061-4.308 9.635-4.257 8.542.115 10.854 10.732 11.23 12.86.003.015.007.03.01.045l18.133 97.994c-.627 1.521-1.119 3.101-1.443 4.734-1.316 6.626-1.038 19.892 15.612 34.286l42.803 37.003c3.157 2.73 7.93 2.382 10.659-.775 2.73-3.157 2.383-7.93-.775-10.659l-42.803-37.003c-8.049-6.959-11.84-14.029-10.672-19.907.964-4.852 4.998-7.807 8.452-8.954 1.907-.634 6.765-1.722 10.705 1.83.063.057 70.816 59.627 70.834 59.642.008.007.017.014.026.021 3.2 2.689 6.256 4.95 8.953 6.944 11.369 8.406 19.076 14.124 25.321 44.572z"/><path d="m506.352 155.494c-5.17-5.949-12.964-9.473-20.912-9.473-.12 0-.24 0-.359.002-4.691.063-9.006 1.399-12.739 3.785-3.211-5.053-8.383-8.841-14.688-10.102-5.907-1.202-11.934-.022-16.973 3.32-5.147 3.414-8.663 8.683-9.902 14.836-.008.04-.016.081-.023.121l-3.715 20.147c-2.03-1.146-4.246-2.005-6.61-2.476-5.912-1.203-11.935-.022-16.97 3.322-5.15 3.419-8.668 8.699-9.906 14.867-.008.039-.016.078-.022.117l-7.197 39.055c-1.859-.999-3.872-1.726-5.991-2.148-5.656-1.148-11.428-.014-16.257 3.191-4.927 3.27-8.292 8.309-9.476 14.189-.008.036-.015.073-.021.109l-13.762 73.958c-2.132 1.704-4.205 3.239-6.225 4.732-13.914 10.288-23.233 18.592-30.175 49.192-3.035-.868-6.261-.944-9.417-.151-4.724 1.187-8.695 4.133-11.174 8.288l-17.131 28.627c-5.074 8.503-2.294 19.667 6.185 24.878l26.454 16.322c3.549 2.191 8.208 1.09 10.399-2.463 2.192-3.552 1.09-8.208-2.463-10.4l-26.465-16.329c-1.482-.911-1.99-2.823-1.135-4.255l17.131-28.627c.555-.93 1.419-1.265 1.883-1.382.467-.117 1.386-.23 2.32.33l83.644 50.054c.943.563 1.28 1.433 1.397 1.902.114.458.224 1.361-.349 2.305l-17.103 28.624c-.864 1.45-2.772 1.916-4.252 1.037l-28.147-16.711c-3.587-2.129-8.224-.948-10.356 2.641-2.13 3.589-.948 8.226 2.641 10.357l28.147 16.711c2.918 1.732 6.128 2.556 9.299 2.556 6.206 0 12.256-3.158 15.647-8.843l17.076-28.581c2.507-4.141 3.239-9.024 2.062-13.75-.721-2.897-2.111-5.507-4.028-7.671 9.578-14.815 16.505-22.556 32.831-37.517l29.423-26.925c11.495-10.518 23.881-31.438 27.613-46.651 4.917-20.23 10.79-53.505 12.701-66.009l12.49-81.3c.978-6.351-.938-12.677-5.4-17.811zm-67.851 43.831c.042-.189.078-.379.106-.573l7-37.957c.45-2.167 1.666-4.002 3.43-5.172 1.669-1.108 3.658-1.502 5.629-1.099 4.056.811 6.794 4.938 5.98 9.013-.007.036-.014.071-.021.106l-17.503 94.587c-1.354-.704-2.77-1.32-4.253-1.813-3.553-1.18-7.16-1.619-10.644-1.37zm-41.137 57.238c.005-.025.014-.049.019-.075.01-.048.012-.096.021-.144l10.979-59.577c.451-2.181 1.67-4.026 3.437-5.199 1.668-1.106 3.653-1.496 5.628-1.097 3.259.65 5.727 3.395 6.088 6.663l-12.136 65.806-18.005 15.159zm-27.928-5.379c.394-1.898 1.462-3.507 3.009-4.534 1.462-.97 3.2-1.316 4.919-.966 1.715.342 3.204 1.35 4.192 2.838.959 1.445 1.318 3.154 1.03 4.833l-7.382 40.06-16.158 13.604zm127.374-80.18-12.492 81.312c-1.878 12.291-7.639 44.945-12.443 64.713-2.966 12.093-13.992 30.722-23.133 39.085l-29.427 26.929c-17.213 15.773-24.906 24.395-35.139 40.184l-65.913-39.444c6.246-30.459 13.954-36.178 25.325-44.585 2.696-1.993 79.62-66.442 79.62-66.442.065-.054.129-.11.191-.166 3.942-3.551 8.8-2.462 10.706-1.83 3.454 1.147 7.489 4.102 8.452 8.954 1.168 5.879-2.622 12.948-10.671 19.907l-42.804 37.003c-3.157 2.729-3.504 7.502-.775 10.659 2.731 3.159 7.504 3.504 10.66.775l42.804-37.003c16.65-14.394 16.928-27.66 15.612-34.286-.324-1.633-.816-3.214-1.443-4.735l18.135-97.998c.002-.013.007-.026.009-.04.377-2.127 2.687-12.745 11.202-12.86 3.609-.045 7.364 1.63 9.66 4.272 1.536 1.771 2.165 3.652 1.864 5.596z"/><path d="m346.604 204.639c.039-.039.078-.078.116-.118 26.312-27.247 26.312-71.581.002-98.826-11.527-11.947-27.424-17.725-44.756-16.267-15.766 1.325-31.467 8.382-44.213 19.868-.642.578-1.223 1.114-1.752 1.608-.529-.492-1.113-1.027-1.757-1.603-12.732-11.49-28.428-18.547-44.193-19.873-17.333-1.462-33.226 4.319-44.751 16.264-26.312 27.247-26.312 71.581 0 98.828.038.039.076.078.115.116l13.463 13.352c2.962 2.938 7.747 2.919 10.687-.044 2.939-2.963 2.919-7.748-.044-10.687l-13.402-13.292c-20.669-21.462-20.65-56.334.056-77.776 19.086-19.785 49.251-12.533 67.967 4.353 1.258 1.125 2.258 2.075 3.072 2.847 2.683 2.544 5.001 4.742 8.796 4.742 3.809 0 6.136-2.218 8.832-4.786.805-.768 1.792-1.708 3.028-2.821 18.713-16.863 48.894-24.113 67.978-4.333 20.702 21.438 20.721 56.309.056 77.771l-78.929 78.213s-.79.764-.975.911c-.174-.137-.992-.921-.992-.921l-40.783-40.426c-2.963-2.938-7.749-2.918-10.688.047-2.938 2.964-2.917 7.749.047 10.687l41.082 40.723c1.391 1.377 3.11 2.592 4.728 3.674 1.979 1.324 4.2 2.263 6.616 2.263 2.378 0 4.575-.91 6.529-2.207 1.645-1.092 3.376-2.333 4.786-3.729z"/></g></g></svg>