<svg id="Layer_1" enable-background="new 0 0 512 512" height="512" viewBox="0 0 512 512" width="512" xmlns="http://www.w3.org/2000/svg"><g><g><path clip-rule="evenodd" d="m312.296 191.898 79.332-76.562 4.395-4.224c23.023-23.839 23.023-62.871 0-86.71-20.102-20.806-53.36-18.028-74.398 1.644-9.612 8.957-9.045 8.957-18.656 0-21.038-19.672-54.296-22.45-74.398-1.644-22.994 23.839-22.994 62.871 0 86.71l4.395 4.224z" fill="#ff9eb1" fill-rule="evenodd"/></g><g><path clip-rule="evenodd" d="m222.615 192.607c26.538 12.472 58.549 13.238 89.681-.709l-79.332-76.562c-20.669-4.45-43.352-2.551-65.808 6.803 8.563 33.023 29.147 57.571 55.459 70.468z" fill="#9de3d1" fill-rule="evenodd"/></g><g><path clip-rule="evenodd" d="m401.977 192.607c26.312-12.897 46.896-37.445 55.459-70.468-22.427-9.354-45.138-11.253-65.808-6.803l-79.332 76.562c31.16 13.947 63.17 13.181 89.681.709z" fill="#9de3d1" fill-rule="evenodd"/></g><g><path clip-rule="evenodd" d="m320.32 409.822 94.529-46.827c-15.622-41.442-55.629-70.921-102.553-70.921-44.798 0-83.33 26.9-100.313 65.422 16.728-.85 33.769 2.324 51.206 7.483l38.872 11.537c14.176 4.195 22.398 19.133 18.259 33.306z" fill="#ffda8f" fill-rule="evenodd"/></g><g><path clip-rule="evenodd" d="m245.042 491.685c36.235 9.808 50.78 18.85 85.201-4.11l115.567-82.26c11.596-8.277 15.934-23.584 8.421-35.716-7.485-12.132-22.909-14.768-35.697-8.419l-3.686 1.814-94.529 46.827c4.14-14.173-4.083-29.111-18.259-33.306l-38.872-11.537c-17.437-5.159-34.477-8.334-51.206-7.483-14.432.765-28.637 4.507-42.671 12.614-10.803 6.236-15.849 12.444-35.129 12.444h-7.4v84.187c24.242.028 35.101.539 62.235 8.504 18.666 5.51 37.353 10.95 56.025 16.441z" fill="#ffdcd5" fill-rule="evenodd"/></g><g><path clip-rule="evenodd" d="m126.782 466.74v-84.187c0-9.042-7.429-16.469-16.473-16.469h-39.837c-9.073 0-16.473 7.398-16.473 16.469v92.379c0 9.071 7.4 16.469 16.473 16.469h39.836c9.045 0 16.473-7.398 16.473-16.469v-8.192z" fill="#9de3d1" fill-rule="evenodd"/></g><g><path clip-rule="evenodd" d="m245.042 491.685c36.235 9.808 50.78 18.85 85.201-4.11l115.567-82.26c11.596-8.277 15.934-23.584 8.421-35.716-7.485-12.132-22.909-14.768-35.697-8.419l-3.686 1.814-94.529 46.827c4.14-14.173-4.083-29.111-18.259-33.306l-38.872-11.537c-17.437-5.159-34.477-8.334-51.206-7.483-14.432.765-28.637 4.507-42.671 12.614-10.803 6.236-15.849 12.444-35.129 12.444h-7.4v84.187c24.242.028 35.101.539 62.235 8.504 18.666 5.51 37.353 10.95 56.025 16.441z" fill="#ffdcd5" fill-rule="evenodd"/></g><path d="m462.741 364.348c-8.862-14.363-26.111-19.958-42.694-14.555-8.82-18.352-22.137-34.114-38.979-45.976-17.466-12.301-37.612-19.575-58.773-21.321v-76.098c12.157 3.869 24.454 5.815 36.583 5.815 16.35 0 32.392-3.518 47.355-10.557.048-.023.097-.046.145-.069 30.132-14.771 51.702-42.093 60.737-76.937 1.25-4.819-1.236-9.823-5.83-11.739-15.399-6.423-31.32-9.714-47.02-9.84 14.993-27.164 11.32-62.452-11.051-85.616-11.522-11.925-27.315-18.101-44.449-17.4-16.176.665-31.792 7.302-43.957 18.677 0 0-1.953 1.823-2.511 2.337-.559-.514-2.499-2.325-2.499-2.325-12.179-11.389-27.794-18.026-43.97-18.69-17.138-.7-32.928 5.475-44.456 17.406-22.342 23.163-26.009 58.45-11.032 85.612-15.695.127-31.619 3.417-47.029 9.837-4.597 1.914-7.084 6.92-5.834 11.741 9.034 34.843 30.605 62.166 60.737 76.937.049.024.099.048.148.071 14.977 7.039 31.023 10.555 47.373 10.555 12.125 0 24.416-1.945 36.562-5.811v76.106c-41.359 3.466-78.158 28.243-96.877 65.509-13.4 1.453-27.262 5.457-41.107 13.433-2.292 1.323-4.348 2.645-6.163 3.811-6.953 4.47-11.216 7.192-23.341 7.285-3.956-9.646-13.445-16.46-24.501-16.46h-39.836c-14.597-.002-26.472 11.872-26.472 26.467v92.379c0 14.595 11.875 26.469 26.472 26.469h39.836c13.967 0 25.435-10.874 26.399-24.598 16.444.25 27.245 1.505 49.479 8.032 22.97 6.781 45.975 13.433 68.975 20.108 13.216 3.834 24.323 7.057 35.9 7.057 13.077 0 26.753-4.115 44.731-16.106 4.594-3.065 5.834-9.274 2.77-13.868-3.064-4.595-9.273-5.833-13.867-2.77-26.158 17.449-37.225 14.237-63.962 6.48-22.975-6.668-45.955-13.312-68.9-20.086-23.887-7.012-35.741-8.53-55.052-8.836v-64.301c16.688-.477 24.563-5.531 32.183-10.43 1.705-1.096 3.468-2.229 5.338-3.309 23.868-13.75 49.601-15.008 86.041-4.209l38.88 11.539c8.929 2.643 14.087 12.013 11.508 20.883-.004.016-.009.032-.014.048-2.627 8.893-12.021 14.025-20.954 11.439l-55.572-16.129c-5.306-1.542-10.851 1.512-12.39 6.816s1.512 10.851 6.816 12.39l55.58 16.131c17.981 5.203 36.822-3.944 44.125-20.665l94.66-46.881c7.543-3.745 17.778-3.33 22.749 4.728 4.462 7.203 1.998 16.795-5.717 22.303l-42.388 30.16c-4.5 3.202-5.552 9.445-2.35 13.945 1.951 2.742 5.029 4.203 8.156 4.203 2.005 0 4.03-.602 5.789-1.853l42.399-30.169c16.419-11.719 21.197-32.836 11.121-49.105zm-345.958 110.584c0 3.507-2.965 6.47-6.474 6.47h-39.837c-3.57 0-6.474-2.902-6.474-6.47v-92.379c0-3.567 2.904-6.47 6.474-6.47h39.836c3.509 0 6.474 2.963 6.474 6.47v92.379zm280.865-291.34c-20.684 9.708-44.005 11.178-66.961 4.455l65.787-63.476c15.814-2.899 32.439-1.64 48.688 3.667-8.611 24.949-25.242 44.413-47.514 55.354zm-161.888-152.241c15.242-15.776 42.328-14.879 60.391 2.011 0 0 10.071 9.402 16.145 9.402 6.073 0 16.157-9.414 16.157-9.414 18.049-16.879 45.134-17.776 60.377-2.001 19.349 20.035 19.389 52.609.117 72.694l-76.652 73.96-76.649-73.957c-19.246-20.088-19.207-52.665.114-72.695zm-8.819 152.24c-22.272-10.942-38.9-30.401-47.511-55.349 16.259-5.305 32.887-6.567 48.686-3.671l65.789 63.479c-22.937 6.721-46.26 5.25-66.964-4.459zm77.964 183.338-38.876-11.538c-11.267-3.339-23.967-6.433-37.513-7.57 18.139-28.2 49.574-45.748 83.779-45.748 38.187 0 73.132 22.247 89.62 56.18l-71.566 35.444c-3.014-12.38-12.371-22.899-25.444-26.768z"/><g><path d="m366.838 471.53c-3.673 0-7.212-2.018-8.963-5.518-2.47-4.94-.496-10.932 4.443-13.402l.057-.028c4.941-2.47 10.945-.467 13.415 4.472 2.47 4.94.468 10.946-4.472 13.416-1.438.718-2.97 1.06-4.48 1.06z"/></g></g></svg>